<svg width="16" height="16" viewBox="0 0 16 16" fill="none" xmlns="http://www.w3.org/2000/svg">
<path d="M8.93344 11.6133H7.2601C6.16677 11.6133 5.2801 10.6933 5.2801 9.55999C5.2801 9.28666 5.50677 9.05999 5.7801 9.05999C6.05344 9.05999 6.2801 9.28666 6.2801 9.55999C6.2801 10.14 6.7201 10.6133 7.2601 10.6133H8.93344C9.36677 10.6133 9.72677 10.2267 9.72677 9.75999C9.72677 9.17999 9.5201 9.06666 9.1801 8.94666L6.49344 7.99999C5.97344 7.81999 5.27344 7.43332 5.27344 6.23999C5.27344 5.21332 6.0801 4.38666 7.06677 4.38666H8.7401C9.83344 4.38666 10.7201 5.30666 10.7201 6.43999C10.7201 6.71332 10.4934 6.93999 10.2201 6.93999C9.94677 6.93999 9.7201 6.71332 9.7201 6.43999C9.7201 5.85999 9.2801 5.38666 8.7401 5.38666H7.06677C6.63344 5.38666 6.27344 5.77332 6.27344 6.23999C6.27344 6.81999 6.4801 6.93332 6.8201 7.05332L9.50677 7.99999C10.0268 8.17999 10.7268 8.56666 10.7268 9.75999C10.7201 10.78 9.9201 11.6133 8.93344 11.6133Z" fill="#0076E1"/>
<path d="M8 12.5C7.72667 12.5 7.5 12.2733 7.5 12V4C7.5 3.72667 7.72667 3.5 8 3.5C8.27333 3.5 8.5 3.72667 8.5 4V12C8.5 12.2733 8.27333 12.5 8 12.5Z" fill="#0076E1"/>
<path d="M9.99992 15.1667H5.99992C2.37992 15.1667 0.833252 13.62 0.833252 10V6.00001C0.833252 2.38001 2.37992 0.833344 5.99992 0.833344H9.99992C13.6199 0.833344 15.1666 2.38001 15.1666 6.00001V10C15.1666 13.62 13.6199 15.1667 9.99992 15.1667ZM5.99992 1.83334C2.92658 1.83334 1.83325 2.92668 1.83325 6.00001V10C1.83325 13.0733 2.92658 14.1667 5.99992 14.1667H9.99992C13.0733 14.1667 14.1666 13.0733 14.1666 10V6.00001C14.1666 2.92668 13.0733 1.83334 9.99992 1.83334H5.99992Z" fill="#0076E1"/>
</svg>
