<svg width="16" height="16" viewBox="0 0 16 16" fill="none" xmlns="http://www.w3.org/2000/svg">
<path d="M5.19995 10.1C4.92662 10.1 4.69995 9.87331 4.69995 9.59998V6.79999C4.69995 6.52665 4.92662 6.29999 5.19995 6.29999C5.47328 6.29999 5.69995 6.52665 5.69995 6.79999V9.59998C5.69995 9.87331 5.47328 10.1 5.19995 10.1Z" fill="#637087"/>
<path d="M5.30001 7.1C4.30667 7.1 3.5 6.29334 3.5 5.30001C3.5 4.30667 4.30667 3.5 5.30001 3.5C6.29334 3.5 7.10002 4.30667 7.10002 5.30001C7.10002 6.29334 6.29334 7.1 5.30001 7.1ZM5.30001 4.5C4.86001 4.5 4.5 4.86001 4.5 5.30001C4.5 5.74001 4.86001 6.1 5.30001 6.1C5.74001 6.1 6.10002 5.74001 6.10002 5.30001C6.10002 4.86001 5.74001 4.5 5.30001 4.5Z" fill="#637087"/>
<path d="M5.19999 12.5C4.25999 12.5 3.5 11.74 3.5 10.8C3.5 9.86005 4.25999 9.10004 5.19999 9.10004C6.13999 9.10004 6.89998 9.86005 6.89998 10.8C6.89998 11.74 6.13999 12.5 5.19999 12.5ZM5.19999 10.1C4.81333 10.1 4.5 10.4134 4.5 10.8C4.5 11.1867 4.81333 11.5 5.19999 11.5C5.58666 11.5 5.89998 11.1867 5.89998 10.8C5.89998 10.4134 5.58666 10.1 5.19999 10.1Z" fill="#637087"/>
<path d="M10.7998 12.5C9.85985 12.5 9.09985 11.74 9.09985 10.8C9.09985 9.86005 9.85985 9.10004 10.7998 9.10004C11.7398 9.10004 12.4998 9.86005 12.4998 10.8C12.4998 11.74 11.7398 12.5 10.7998 12.5ZM10.7998 10.1C10.4132 10.1 10.0999 10.4134 10.0999 10.8C10.0999 11.1867 10.4132 11.5 10.7998 11.5C11.1865 11.5 11.4998 11.1867 11.4998 10.8C11.4998 10.4134 11.1865 10.1 10.7998 10.1Z" fill="#637087"/>
<path d="M10.4668 10.1133C10.2601 10.1133 10.0668 9.98665 9.99347 9.77998C9.7268 9.01998 9.01347 8.5133 8.2068 8.5133H8.20013L6.8268 8.51997H6.82013C5.85346 8.51997 5.00682 7.86664 4.76682 6.9333C4.70015 6.66664 4.86014 6.3933 5.12681 6.32663C5.38681 6.25997 5.66679 6.41997 5.73346 6.68664C5.86012 7.17997 6.30679 7.52665 6.82013 7.52665C6.82013 7.52665 6.82013 7.52665 6.8268 7.52665L8.20013 7.51997C8.2068 7.51997 8.20681 7.51997 8.21348 7.51997C9.44014 7.51997 10.5401 8.29998 10.9468 9.45998C11.0401 9.71998 10.9002 10.0066 10.6402 10.1C10.5802 10.1066 10.5201 10.1133 10.4668 10.1133Z" fill="#637087"/>
<path d="M9.99992 15.1666H5.99992C2.37992 15.1666 0.833252 13.62 0.833252 9.99998V5.99998C0.833252 2.37998 2.37992 0.833313 5.99992 0.833313H9.99992C13.6199 0.833313 15.1666 2.37998 15.1666 5.99998V9.99998C15.1666 13.62 13.6199 15.1666 9.99992 15.1666ZM5.99992 1.83331C2.92659 1.83331 1.83325 2.92665 1.83325 5.99998V9.99998C1.83325 13.0733 2.92659 14.1666 5.99992 14.1666H9.99992C13.0733 14.1666 14.1666 13.0733 14.1666 9.99998V5.99998C14.1666 2.92665 13.0733 1.83331 9.99992 1.83331H5.99992Z" fill="#637087"/>
</svg>
