<svg width="15" height="15" viewBox="0 0 15 15" fill="none" xmlns="http://www.w3.org/2000/svg">
<path fill-rule="evenodd" clip-rule="evenodd" d="M4.40557 9.75602H2.92681C1.31287 9.75602 3.33929e-08 8.44315 3.33929e-08 6.82922C-0.000243834 5.20601 1.33526 3.89763 2.95373 3.90241C3.1969 1.71038 5.06094 0 7.31702 0C9.19915 0 10.8524 1.18926 11.4607 2.93515C13.2314 3.05949 14.634 4.53977 14.634 6.34141C14.634 8.22428 13.1023 9.75602 11.2194 9.75602H10.2286C10.2386 9.79498 10.2439 9.83582 10.2439 9.87791V11.7072H11.0976C11.367 11.7072 11.5854 11.9256 11.5854 12.195C11.5854 12.4643 11.367 12.6828 11.0976 12.6828H9.75614C9.48678 12.6828 9.26834 12.4643 9.26834 12.195V9.87791C9.26834 9.83582 9.27367 9.79498 9.2837 9.75602H7.78958C7.7996 9.79498 7.80494 9.83582 7.80494 9.87791V11.5852C7.80494 11.8546 7.5865 12.073 7.31713 12.073C7.04777 12.073 6.82933 11.8546 6.82933 11.5852V9.87791C6.82933 9.83582 6.83467 9.79498 6.84469 9.75602H5.35045C5.36048 9.79498 5.36581 9.83582 5.36581 9.87791V12.195C5.36581 12.4643 5.14737 12.6828 4.87801 12.6828H3.53656C3.26719 12.6828 3.04876 12.4643 3.04876 12.195C3.04876 11.9256 3.26719 11.7072 3.53656 11.7072H4.39021V9.87791C4.39021 9.83582 4.39554 9.79498 4.40557 9.75602ZM2.92678 4.87806C1.85089 4.87806 0.975578 5.75337 0.975578 6.82926C0.975578 7.90516 1.85089 8.78047 2.92678 8.78047H11.2194C12.5642 8.78047 13.6584 7.68623 13.6584 6.34146C13.6584 4.99669 12.5642 3.90246 11.2194 3.90246L11.203 3.90231C11.187 3.90209 11.1716 3.90188 11.1565 3.90363C10.9116 3.93172 10.6849 3.77738 10.6247 3.53968C10.2407 2.03008 8.88069 0.97565 7.31699 0.97565C5.43413 0.97565 3.90238 2.50739 3.90238 4.39026V4.43909C3.90238 4.58674 3.83546 4.7266 3.72019 4.81923C3.60517 4.91186 3.45488 4.94786 3.3098 4.91547C3.19688 4.89069 3.06805 4.87806 2.92678 4.87806Z" fill="#637087"/>
<path fill-rule="evenodd" clip-rule="evenodd" d="M5.85376 13.5366C5.85376 14.3436 6.51019 15 7.31716 15C8.12413 15 8.78057 14.3436 8.78057 13.5366C8.78057 12.7296 8.12413 12.0732 7.31716 12.0732C6.51019 12.0732 5.85376 12.7296 5.85376 13.5366ZM6.82944 13.5366C6.82944 13.2677 7.04832 13.0488 7.31724 13.0488C7.58617 13.0488 7.80504 13.2677 7.80504 13.5366C7.80504 13.8056 7.58617 14.0244 7.31724 14.0244C7.04832 14.0244 6.82944 13.8056 6.82944 13.5366Z" fill="#637087"/>
<path fill-rule="evenodd" clip-rule="evenodd" d="M11.6462 12.1951C11.6462 13.0021 12.3027 13.6585 13.1096 13.6585C13.9166 13.6585 14.573 13.0021 14.573 12.1951C14.573 11.3881 13.9166 10.7317 13.1096 10.7317C12.3027 10.7317 11.6462 11.3881 11.6462 12.1951ZM12.6219 12.1952C12.6219 11.9263 12.8407 11.7074 13.1097 11.7074C13.3786 11.7074 13.5975 11.9263 13.5975 12.1952C13.5975 12.4641 13.3786 12.683 13.1097 12.683C12.8407 12.683 12.6219 12.4641 12.6219 12.1952Z" fill="#637087"/>
<path fill-rule="evenodd" clip-rule="evenodd" d="M0.0610352 12.1951C0.0610352 13.0021 0.717469 13.6585 1.52444 13.6585C2.33141 13.6585 2.98784 13.0021 2.98784 12.1951C2.98784 11.3881 2.33141 10.7317 1.52444 10.7317C0.717469 10.7317 0.0610352 11.3881 0.0610352 12.1951ZM1.03673 12.2395C1.03673 11.9461 1.2755 11.7073 1.56887 11.7073C1.86225 11.7073 2.10102 11.9461 2.10102 12.2395C2.10102 12.5329 1.86225 12.7716 1.56887 12.7716C1.2755 12.7716 1.03673 12.5329 1.03673 12.2395Z" fill="#637087"/>
</svg>
