<svg width="15" height="16" viewBox="0 0 15 16" fill="none" xmlns="http://www.w3.org/2000/svg">
<rect width="15" height="15" transform="translate(0 0.5)" fill="white"/>
<path d="M7.5 1.4375C3.87598 1.4375 0.9375 4.37598 0.9375 8C0.9375 11.624 3.87598 14.5625 7.5 14.5625C11.124 14.5625 14.0625 11.624 14.0625 8C14.0625 4.37598 11.124 1.4375 7.5 1.4375Z" fill="#0076E1"/>
<path d="M6.79688 5.42188C6.79688 5.60836 6.87095 5.7872 7.00282 5.91906C7.13468 6.05092 7.31352 6.125 7.5 6.125C7.68648 6.125 7.86532 6.05092 7.99718 5.91906C8.12905 5.7872 8.20312 5.60836 8.20312 5.42188C8.20312 5.23539 8.12905 5.05655 7.99718 4.92469C7.86532 4.79283 7.68648 4.71875 7.5 4.71875C7.31352 4.71875 7.13468 4.79283 7.00282 4.92469C6.87095 5.05655 6.79688 5.23539 6.79688 5.42188ZM7.85156 7.0625H7.14844C7.08398 7.0625 7.03125 7.11523 7.03125 7.17969V11.1641C7.03125 11.2285 7.08398 11.2812 7.14844 11.2812H7.85156C7.91602 11.2812 7.96875 11.2285 7.96875 11.1641V7.17969C7.96875 7.11523 7.91602 7.0625 7.85156 7.0625Z" fill="white"/>
</svg>
