<svg width="16" height="16" viewBox="0 0 16 16" fill="none" xmlns="http://www.w3.org/2000/svg">
<path d="M8.00016 15.1673C4.04683 15.1673 0.833496 11.954 0.833496 8.00065C0.833496 4.04732 4.04683 0.833984 8.00016 0.833984C11.9535 0.833984 15.1668 4.04732 15.1668 8.00065C15.1668 11.954 11.9535 15.1673 8.00016 15.1673ZM8.00016 1.83398C4.60016 1.83398 1.8335 4.60065 1.8335 8.00065C1.8335 11.4007 4.60016 14.1673 8.00016 14.1673C11.4002 14.1673 14.1668 11.4007 14.1668 8.00065C14.1668 4.60065 11.4002 1.83398 8.00016 1.83398Z" fill="white"/>
<path d="M8 9.16732C7.72667 9.16732 7.5 8.94065 7.5 8.66732V5.33398C7.5 5.06065 7.72667 4.83398 8 4.83398C8.27333 4.83398 8.5 5.06065 8.5 5.33398V8.66732C8.5 8.94065 8.27333 9.16732 8 9.16732Z" fill="white"/>
<path d="M8.00016 11.3339C7.9135 11.3339 7.82683 11.3139 7.74683 11.2806C7.66683 11.2472 7.5935 11.2006 7.52683 11.1406C7.46683 11.0739 7.42016 11.0072 7.38683 10.9206C7.3535 10.8406 7.3335 10.7539 7.3335 10.6672C7.3335 10.5806 7.3535 10.4939 7.38683 10.4139C7.42016 10.3339 7.46683 10.2606 7.52683 10.1939C7.5935 10.1339 7.66683 10.0872 7.74683 10.0539C7.90683 9.98724 8.0935 9.98724 8.2535 10.0539C8.3335 10.0872 8.40683 10.1339 8.4735 10.1939C8.5335 10.2606 8.58016 10.3339 8.6135 10.4139C8.64683 10.4939 8.66683 10.5806 8.66683 10.6672C8.66683 10.7539 8.64683 10.8406 8.6135 10.9206C8.58016 11.0072 8.5335 11.0739 8.4735 11.1406C8.40683 11.2006 8.3335 11.2472 8.2535 11.2806C8.1735 11.3139 8.08683 11.3339 8.00016 11.3339Z" fill="white"/>
</svg>
