<svg width="21" height="22" viewBox="0 0 21 22" fill="none" xmlns="http://www.w3.org/2000/svg">
<path d="M14.8809 19.25C12.9609 19.25 11.1509 18.23 10.1709 16.58C9.65086 15.74 9.38086 14.76 9.38086 13.75C9.38086 10.72 11.8509 8.25 14.8809 8.25C17.9109 8.25 20.3809 10.72 20.3809 13.75C20.3809 14.76 20.1009 15.74 19.5809 16.59C18.6109 18.23 16.8109 19.25 14.8809 19.25ZM14.8809 9.75C12.6709 9.75 10.8809 11.54 10.8809 13.75C10.8809 14.48 11.0809 15.19 11.4609 15.8C12.1809 17.01 13.4909 17.75 14.8809 17.75C16.3009 17.75 17.5809 17.03 18.3009 15.81C18.6809 15.19 18.8809 14.48 18.8809 13.75C18.8809 11.54 17.0909 9.75 14.8809 9.75Z" fill="#0076E1"/>
<path d="M16.6608 14.48H13.1108C12.7008 14.48 12.3608 14.14 12.3608 13.73C12.3608 13.32 12.7008 12.98 13.1108 12.98H16.6608C17.0708 12.98 17.4108 13.32 17.4108 13.73C17.4108 14.14 17.0708 14.48 16.6608 14.48Z" fill="#0076E1"/>
<path d="M14.8809 16.29C14.4709 16.29 14.1309 15.95 14.1309 15.54V12C14.1309 11.59 14.4709 11.25 14.8809 11.25C15.2909 11.25 15.6309 11.59 15.6309 12V15.55C15.6309 15.96 15.3009 16.29 14.8809 16.29Z" fill="#0076E1"/>
<path d="M8.93078 21.75C8.45078 21.75 7.97078 21.63 7.54078 21.39C6.65078 20.89 6.12078 19.99 6.12078 18.98V13.63C6.12078 13.13 5.79078 12.37 5.47078 11.98L1.67078 7.98999C1.04078 7.33999 0.550781 6.25001 0.550781 5.45001V3.12C0.550781 1.51 1.77078 0.25 3.32078 0.25H16.6608C18.1908 0.25 19.4308 1.49002 19.4308 3.02002V5.23999C19.4308 6.28999 18.8108 7.47003 18.2108 8.09003L16.4108 9.67999C16.2308 9.83999 15.9808 9.89998 15.7408 9.84998C15.4708 9.77998 15.1809 9.75 14.8809 9.75C12.6709 9.75 10.8809 11.54 10.8809 13.75C10.8809 14.48 11.0808 15.19 11.4608 15.81C11.7808 16.34 12.2108 16.78 12.7108 17.09C12.9308 17.23 13.0708 17.47 13.0708 17.73V18.07C13.0708 18.86 12.5908 19.97 11.7908 20.44L10.4108 21.33C9.96078 21.61 9.44078 21.75 8.93078 21.75ZM3.33078 1.75C2.62078 1.75 2.06078 2.35 2.06078 3.12V5.45001C2.06078 5.81001 2.36078 6.55001 2.76078 6.95001L6.61078 11C7.12078 11.63 7.63078 12.7 7.63078 13.64V18.99C7.63078 19.65 8.09078 19.98 8.28078 20.09C8.71078 20.33 9.22078 20.32 9.61078 20.08L11.0108 19.18C11.2808 19.02 11.5508 18.51 11.5708 18.15C11.0208 17.74 10.5408 17.21 10.1808 16.61C9.66078 15.76 9.38078 14.78 9.38078 13.78C9.38078 10.75 11.8508 8.28003 14.8808 8.28003C15.1608 8.28003 15.4408 8.30003 15.7008 8.34003L17.1808 7.03003C17.5208 6.68003 17.9408 5.85001 17.9408 5.26001V3.03998C17.9408 2.33998 17.3708 1.77002 16.6708 1.77002H3.33078V1.75Z" fill="#0076E1"/>
</svg>
