<svg width="16" height="16" viewBox="0 0 16 16" fill="none" xmlns="http://www.w3.org/2000/svg">
<path d="M7.99982 15.1667C7.83982 15.1667 7.67982 15.1467 7.52649 15.1001C4.06649 14.1467 1.55981 10.9134 1.55981 7.4067V4.48003C1.55981 3.73336 2.09982 2.92673 2.79315 2.64006L6.50649 1.12004C7.47316 0.726709 8.53314 0.726709 9.49314 1.12004L13.2065 2.64006C13.8998 2.92673 14.4398 3.73336 14.4398 4.48003V7.4067C14.4398 10.9067 11.9265 14.1401 8.47314 15.1001C8.31981 15.1467 8.15982 15.1667 7.99982 15.1667ZM7.99982 1.83338C7.61982 1.83338 7.24647 1.90673 6.88647 2.05339L3.17316 3.57337C2.85316 3.7067 2.55981 4.14003 2.55981 4.4867V7.41338C2.55981 10.4734 4.75982 13.3001 7.79315 14.1401C7.92649 14.1801 8.07315 14.1801 8.20648 14.1401C11.2398 13.3001 13.4398 10.4734 13.4398 7.41338V4.4867C13.4398 4.14003 13.1465 3.7067 12.8265 3.57337L9.11316 2.05339C8.75316 1.90673 8.37982 1.83338 7.99982 1.83338Z" fill="#637087"/>
<path d="M8.00008 8.83332C6.98675 8.83332 6.16675 8.01332 6.16675 6.99999C6.16675 5.98666 6.98675 5.16666 8.00008 5.16666C9.01341 5.16666 9.83341 5.98666 9.83341 6.99999C9.83341 8.01332 9.01341 8.83332 8.00008 8.83332ZM8.00008 6.16666C7.54008 6.16666 7.16675 6.53999 7.16675 6.99999C7.16675 7.45999 7.54008 7.83332 8.00008 7.83332C8.46008 7.83332 8.83341 7.45999 8.83341 6.99999C8.83341 6.53999 8.46008 6.16666 8.00008 6.16666Z" fill="#637087"/>
<path d="M8 10.8333C7.72667 10.8333 7.5 10.6067 7.5 10.3333V8.33334C7.5 8.06001 7.72667 7.83334 8 7.83334C8.27333 7.83334 8.5 8.06001 8.5 8.33334V10.3333C8.5 10.6067 8.27333 10.8333 8 10.8333Z" fill="#637087"/>
</svg>
