<svg width="16" height="16" viewBox="0 0 16 16" fill="none" xmlns="http://www.w3.org/2000/svg">
<path d="M8 10.5C6.62 10.5 5.5 9.38 5.5 8C5.5 6.62 6.62 5.5 8 5.5C9.38 5.5 10.5 6.62 10.5 8C10.5 9.38 9.38 10.5 8 10.5ZM8 6.5C7.17333 6.5 6.5 7.17333 6.5 8C6.5 8.82667 7.17333 9.5 8 9.5C8.82667 9.5 9.5 8.82667 9.5 8C9.5 7.17333 8.82667 6.5 8 6.5Z" fill="#172B4D"/>
<path d="M10.1397 14.7933C9.99967 14.7933 9.85967 14.7733 9.71968 14.74C9.30634 14.6267 8.95967 14.3667 8.73967 14L8.65967 13.8667C8.26634 13.1867 7.72634 13.1867 7.33301 13.8667L7.25968 13.9933C7.03967 14.3667 6.69301 14.6333 6.27967 14.74C5.85967 14.8533 5.42634 14.7933 5.05967 14.5733L3.91301 13.9133C3.50634 13.68 3.21301 13.3 3.08634 12.84C2.96634 12.38 3.02634 11.9067 3.25967 11.5C3.45301 11.16 3.50634 10.8533 3.39301 10.66C3.27967 10.4667 2.99301 10.3533 2.59967 10.3533C1.62634 10.3533 0.833008 9.55999 0.833008 8.58665V7.41332C0.833008 6.43999 1.62634 5.64665 2.59967 5.64665C2.99301 5.64665 3.27967 5.53332 3.39301 5.33999C3.50634 5.14665 3.45967 4.83999 3.25967 4.49999C3.02634 4.09332 2.96634 3.61332 3.08634 3.15999C3.20634 2.69999 3.49967 2.31999 3.91301 2.08665L5.06634 1.42665C5.81967 0.979988 6.81301 1.23999 7.26634 2.00665L7.34634 2.13999C7.73968 2.81999 8.27968 2.81999 8.67301 2.13999L8.74634 2.01332C9.19967 1.23999 10.193 0.979988 10.953 1.43332L12.0997 2.09332C12.5063 2.32665 12.7997 2.70665 12.9263 3.16665C13.0463 3.62665 12.9863 4.09999 12.753 4.50665C12.5597 4.84665 12.5063 5.15332 12.6197 5.34665C12.733 5.53999 13.0197 5.65332 13.413 5.65332C14.3863 5.65332 15.1797 6.44665 15.1797 7.41999V8.59332C15.1797 9.56665 14.3863 10.36 13.413 10.36C13.0197 10.36 12.733 10.4733 12.6197 10.6667C12.5063 10.86 12.553 11.1667 12.753 11.5067C12.9863 11.9133 13.053 12.3933 12.9263 12.8467C12.8063 13.3067 12.513 13.6867 12.0997 13.92L10.9463 14.58C10.693 14.72 10.4197 14.7933 10.1397 14.7933ZM7.99967 12.3267C8.59301 12.3267 9.14634 12.7 9.52634 13.36L9.59967 13.4867C9.67967 13.6267 9.81301 13.7267 9.97301 13.7667C10.133 13.8067 10.293 13.7867 10.4263 13.7067L11.5797 13.04C11.753 12.94 11.8863 12.7733 11.9397 12.5733C11.993 12.3733 11.9663 12.1667 11.8663 11.9933C11.4863 11.34 11.4397 10.6667 11.733 10.1533C12.0263 9.63999 12.633 9.34665 13.393 9.34665C13.8197 9.34665 14.1597 9.00665 14.1597 8.57999V7.40665C14.1597 6.98665 13.8197 6.63999 13.393 6.63999C12.633 6.63999 12.0263 6.34665 11.733 5.83332C11.4397 5.31999 11.4863 4.64665 11.8663 3.99332C11.9663 3.81999 11.993 3.61332 11.9397 3.41332C11.8863 3.21332 11.7597 3.05332 11.5863 2.94665L10.433 2.28665C10.1463 2.11332 9.76634 2.21332 9.59301 2.50665L9.51967 2.63332C9.13967 3.29332 8.58634 3.66665 7.99301 3.66665C7.39967 3.66665 6.84634 3.29332 6.46634 2.63332L6.39301 2.49999C6.22634 2.21999 5.85301 2.11999 5.56634 2.28665L4.41301 2.95332C4.23967 3.05332 4.10634 3.21999 4.05301 3.41999C3.99967 3.61999 4.02634 3.82665 4.12634 3.99999C4.50634 4.65332 4.55301 5.32665 4.25967 5.83999C3.96634 6.35332 3.35967 6.64665 2.59967 6.64665C2.17301 6.64665 1.83301 6.98665 1.83301 7.41332V8.58665C1.83301 9.00665 2.17301 9.35332 2.59967 9.35332C3.35967 9.35332 3.96634 9.64665 4.25967 10.16C4.55301 10.6733 4.50634 11.3467 4.12634 12C4.02634 12.1733 3.99967 12.38 4.05301 12.58C4.10634 12.78 4.23301 12.94 4.40634 13.0467L5.55967 13.7067C5.69967 13.7933 5.86634 13.8133 6.01967 13.7733C6.17967 13.7333 6.31301 13.6267 6.39967 13.4867L6.47301 13.36C6.85301 12.7067 7.40634 12.3267 7.99967 12.3267Z" fill="#172B4D"/>
</svg>
