<svg width="16" height="16" viewBox="0 0 16 16" fill="none" xmlns="http://www.w3.org/2000/svg">
<path d="M11.7466 6.41333H8.24658C7.97325 6.41333 7.74658 6.18666 7.74658 5.91333C7.74658 5.64 7.97325 5.41333 8.24658 5.41333H11.7466C12.0199 5.41333 12.2466 5.64 12.2466 5.91333C12.2466 6.18666 12.0266 6.41333 11.7466 6.41333Z" fill="#637087"/>
<path d="M4.74662 6.91999C4.61996 6.91999 4.49329 6.87333 4.39329 6.77333L3.89329 6.27333C3.69996 6.07999 3.69996 5.76 3.89329 5.56666C4.08662 5.37333 4.40662 5.37333 4.59996 5.56666L4.74662 5.71333L5.89329 4.56666C6.08662 4.37333 6.40662 4.37333 6.59996 4.56666C6.79329 4.75999 6.79329 5.07999 6.59996 5.27333L5.09996 6.77333C5.00662 6.86666 4.87996 6.91999 4.74662 6.91999Z" fill="#637087"/>
<path d="M11.7466 11.08H8.24658C7.97325 11.08 7.74658 10.8533 7.74658 10.58C7.74658 10.3067 7.97325 10.08 8.24658 10.08H11.7466C12.0199 10.08 12.2466 10.3067 12.2466 10.58C12.2466 10.8533 12.0266 11.08 11.7466 11.08Z" fill="#637087"/>
<path d="M4.74662 11.5867C4.61996 11.5867 4.49329 11.54 4.39329 11.44L3.89329 10.94C3.69996 10.7467 3.69996 10.4267 3.89329 10.2333C4.08662 10.04 4.40662 10.04 4.59996 10.2333L4.74662 10.38L5.89329 9.23335C6.08662 9.04002 6.40662 9.04002 6.59996 9.23335C6.79329 9.42668 6.79329 9.74668 6.59996 9.94001L5.09996 11.44C5.00662 11.5333 4.87996 11.5867 4.74662 11.5867Z" fill="#637087"/>
<path d="M9.99992 15.1667H5.99992C2.37992 15.1667 0.833252 13.62 0.833252 10V6.00001C0.833252 2.38001 2.37992 0.833344 5.99992 0.833344H9.99992C13.6199 0.833344 15.1666 2.38001 15.1666 6.00001V10C15.1666 13.62 13.6199 15.1667 9.99992 15.1667ZM5.99992 1.83334C2.92659 1.83334 1.83325 2.92668 1.83325 6.00001V10C1.83325 13.0733 2.92659 14.1667 5.99992 14.1667H9.99992C13.0733 14.1667 14.1666 13.0733 14.1666 10V6.00001C14.1666 2.92668 13.0733 1.83334 9.99992 1.83334H5.99992Z" fill="#637087"/>
</svg>
